<svg width="71" height="71" viewBox="0 0 71 71" fill="none" xmlns="http://www.w3.org/2000/svg">
<path d="M31.6958 11.7082C32.8932 8.02297 38.1068 8.02296 39.3042 11.7082L42.5722 21.766C43.1077 23.4141 44.6435 24.5299 46.3764 24.5299H56.9518C60.8267 24.5299 62.4378 29.4884 59.3029 31.766L50.7473 37.982C49.3453 39.0006 48.7587 40.806 49.2942 42.4541L52.5621 52.5119C53.7596 56.1971 49.5416 59.2616 46.4068 56.984L37.8511 50.768C36.4492 49.7494 34.5508 49.7494 33.1489 50.768L24.5932 56.984C21.4584 59.2616 17.2404 56.1971 18.4378 52.5119L21.7058 42.4541C22.2413 40.8061 21.6547 39.0006 20.2527 37.982L11.6971 31.766C8.56224 29.4884 10.1733 24.5299 14.0482 24.5299H24.6236C26.3565 24.5299 27.8923 23.4141 28.4278 21.766L31.6958 11.7082Z" fill="#FFDD00"/>
<path fill-rule="evenodd" clip-rule="evenodd" d="M28.0333 32.3881C27.6235 33.1384 28.7443 33.7847 29.9099 33.4704C30.9653 33.1856 30.5728 32.0251 29.3659 31.862C28.831 31.7894 28.2311 32.0262 28.0333 32.3881ZM40.2471 32.2596C39.8782 32.5189 39.5763 32.885 39.5763 33.0732C39.5763 33.2618 39.9995 33.1184 40.5166 32.755C41.3981 32.1355 41.5082 32.1398 42.2691 32.8249C43.0416 33.5207 43.0634 33.5215 42.7263 32.8363C42.5312 32.4407 42.3713 32.0427 42.3713 31.9524C42.3713 31.5984 40.8816 31.8137 40.2471 32.2596ZM32.2314 38.0731C32.9665 38.5111 34.3629 38.8596 35.3837 38.8596C36.4044 38.8596 37.8008 38.5111 38.5359 38.0731L39.8558 37.287L38.1788 37.8743C37.2564 38.1976 35.9986 38.462 35.3837 38.462C34.7688 38.462 33.511 38.1976 32.5886 37.8743L30.9116 37.287L32.2314 38.0731Z" fill="black"/>
</svg>
