<svg width="71" height="71" viewBox="0 0 71 71" fill="none" xmlns="http://www.w3.org/2000/svg">
<path d="M31.6958 11.7082C32.8932 8.02297 38.1068 8.02296 39.3042 11.7082L42.5722 21.766C43.1077 23.4141 44.6435 24.5299 46.3764 24.5299H56.9518C60.8267 24.5299 62.4378 29.4884 59.3029 31.766L50.7473 37.982C49.3453 39.0006 48.7587 40.806 49.2942 42.4541L52.5621 52.5119C53.7596 56.1971 49.5416 59.2616 46.4068 56.984L37.8511 50.768C36.4492 49.7494 34.5508 49.7494 33.1489 50.768L24.5932 56.984C21.4584 59.2616 17.2404 56.1971 18.4378 52.5119L21.7058 42.4541C22.2413 40.8061 21.6547 39.0006 20.2527 37.982L11.6971 31.766C8.56224 29.4884 10.1733 24.5299 14.0482 24.5299H24.6236C26.3565 24.5299 27.8923 23.4141 28.4278 21.766L31.6958 11.7082Z" fill="#FFDD00"/>
<path fill-rule="evenodd" clip-rule="evenodd" d="M26.5102 31.5101C27.1062 32.0436 27.1397 32.3248 26.65 32.669C25.6969 33.3388 25.8612 33.9312 26.8412 33.3596C27.9503 32.713 27.9011 32.0066 26.7014 31.3451C25.8098 30.8536 25.793 30.8685 26.5102 31.5101ZM39.7119 31.6385C38.8778 32.2247 38.8817 32.3323 39.7588 33.0135C40.2821 33.4197 40.836 33.7525 40.9898 33.7525C41.1435 33.7525 40.8578 33.4331 40.3553 33.043C39.5095 32.3857 39.5117 32.2844 40.3888 31.668C40.9093 31.3018 41.1737 31.0025 40.9764 31.0025C40.7785 31.0025 40.2094 31.2885 39.7119 31.6385ZM41.7674 35.3239C41.1592 36.4624 41.4644 37.2882 42.4935 37.2882C43.6004 37.2882 43.8497 36.3697 43.0313 35.3043L42.2923 34.3418L41.7674 35.3239ZM31.2305 37.6783C30.5704 37.8657 29.8481 38.2256 29.6262 38.4786C29.3249 38.8207 29.5412 38.818 30.4748 38.4668C32.0965 37.8567 35.3069 37.8618 36.3595 38.4754C36.8123 38.7398 37.1829 38.7858 37.1829 38.578C37.1829 38.1124 34.6791 37.2792 33.3833 37.313C32.8595 37.3267 31.8913 37.4913 31.2305 37.6783ZM43.6892 38.7394C43.0598 39.1818 43.3063 39.6453 44.1705 39.6453C44.6317 39.6453 45.0091 39.4792 45.0091 39.2757C45.0091 38.7803 44.1359 38.4255 43.6892 38.7394Z" fill="black"/>
</svg>
