<svg width="71" height="71" viewBox="0 0 71 71" fill="none" xmlns="http://www.w3.org/2000/svg">
<path d="M31.6958 11.7082C32.8932 8.02297 38.1068 8.02296 39.3042 11.7082L42.5722 21.766C43.1077 23.4141 44.6435 24.5299 46.3764 24.5299H56.9518C60.8267 24.5299 62.4378 29.4884 59.3029 31.766L50.7473 37.982C49.3453 39.0006 48.7587 40.806 49.2942 42.4541L52.5621 52.5119C53.7596 56.1971 49.5416 59.2616 46.4068 56.984L37.8511 50.768C36.4492 49.7494 34.5508 49.7494 33.1489 50.768L24.5932 56.984C21.4584 59.2616 17.2404 56.1971 18.4378 52.5119L21.7058 42.4541C22.2413 40.8061 21.6547 39.0006 20.2527 37.982L11.6971 31.766C8.56224 29.4884 10.1733 24.5299 14.0482 24.5299H24.6236C26.3565 24.5299 27.8923 23.4141 28.4278 21.766L31.6958 11.7082Z" fill="#FFDD00"/>
<path fill-rule="evenodd" clip-rule="evenodd" d="M27.4199 32.5318C27.4199 33.4825 28.8186 33.8722 29.6632 33.1568C30.4844 32.4618 29.9142 31.7881 28.505 31.7881C27.8129 31.7881 27.4199 32.0576 27.4199 32.5318ZM39.7182 32.5318C39.7182 33.4825 41.1168 33.8722 41.9615 33.1568C42.7827 32.4618 42.2125 31.7881 40.8032 31.7881C40.1112 31.7881 39.7182 32.0576 39.7182 32.5318ZM32.6478 37.6782C31.9876 37.8656 31.2654 38.2254 31.0434 38.4784C30.7421 38.8206 30.9585 38.8179 31.892 38.4667C33.5227 37.8534 36.7258 37.8624 37.7901 38.4836C38.2508 38.7519 38.7701 38.8709 38.9451 38.7479C39.385 38.4388 36.0885 37.2826 34.8548 37.3128C34.3013 37.3266 33.3085 37.4912 32.6478 37.6782Z" fill="black"/>
</svg>
