<svg width="71" height="71" viewBox="0 0 71 71" fill="none" xmlns="http://www.w3.org/2000/svg">
<path d="M31.6958 11.7082C32.8932 8.02297 38.1068 8.02296 39.3042 11.7082L42.5722 21.766C43.1077 23.4141 44.6435 24.5299 46.3764 24.5299H56.9518C60.8267 24.5299 62.4378 29.4884 59.3029 31.766L50.7473 37.982C49.3453 39.0006 48.7587 40.806 49.2942 42.4541L52.5621 52.5119C53.7596 56.1971 49.5416 59.2616 46.4068 56.984L37.8511 50.768C36.4492 49.7494 34.5508 49.7494 33.1489 50.768L24.5932 56.984C21.4584 59.2616 17.2404 56.1971 18.4378 52.5119L21.7058 42.4541C22.2413 40.8061 21.6547 39.0006 20.2527 37.982L11.6971 31.766C8.56224 29.4884 10.1733 24.5299 14.0482 24.5299H24.6236C26.3565 24.5299 27.8923 23.4141 28.4278 21.766L31.6958 11.7082Z" fill="#FFDD00"/>
<path fill-rule="evenodd" clip-rule="evenodd" d="M28.2305 31.2988C28.2305 32.1918 29.4519 32.7881 30.2854 32.3022C31.499 31.5942 31.1485 30.7881 29.628 30.7881C28.8538 30.7881 28.2305 31.0159 28.2305 31.2988ZM39.8031 31.036C39.6092 31.1727 39.7031 31.617 40.0128 32.0232C40.4628 32.6137 40.7959 32.6797 41.6702 32.3509C43.1969 31.7765 43.0638 30.7881 41.4606 30.7881C40.7428 30.7881 39.9971 30.8997 39.8031 31.036Z" fill="black"/>
<path fill-rule="evenodd" clip-rule="evenodd" d="M30 37.9472C30 39.1902 32.9404 40.9286 35.0428 40.9286C37.0027 40.9286 39.3349 39.5386 39.8224 38.0804L40.1835 37H35.0915C30.0833 37 30 37.0153 30 37.9472ZM37.498 39.3866C38.5042 40.0458 34.9629 40.6111 33.145 40.082L31.4641 39.5925L33.1075 39.103C34.7292 38.6201 36.5019 38.7349 37.498 39.3866Z" fill="#FF0000"/>
</svg>
